# xmcd CD database file
#
# Track frame offsets:
#	150
#	26112
#	48762
#	74875
#	101187
#	119112
#	144537
#	167487
#	181287
#	217887
#
# Disc length: 3106 seconds
#
# Revision: 4
# Processed by: cddbd v1.5.1PL2 Copyright (c) Steve Scherf et al.
# Submitted via: CDex 1.51
#
DISCID=980c200a
DTITLE=Preservation Hall Jazz Band - Marching Down Bourbon Street
DYEAR=1997
DGENRE=Jazz
TTITLE0=Just A Closer Walk With Thee
TTITLE1=Mood Indigo
TTITLE2=St. Louis Blues
TTITLE3=Hindustan
TTITLE4=Bill Bailey (Won't You Please Come Home)
TTITLE5=St. James Infirmary
TTITLE6=The Bucket's Got A Hole In It
TTITLE7=I Shall Not Be Moved
TTITLE8=When The Saints Go Marchin' In
TTITLE9=Amen
EXTD=YEAR: 1997
EXTT0=
EXTT1=
EXTT2=
EXTT3=
EXTT4=
EXTT5=
EXTT6=
EXTT7=
EXTT8=
EXTT9=
PLAYORDER=
